<?xml version="1.0" encoding="UTF-8"?>
<svg width="64px" height="64px" viewBox="0 0 64 64" version="1.1" xmlns="http://www.w3.org/2000/svg" xmlns:xlink="http://www.w3.org/1999/xlink">
    <title>icon-cash-64x64</title>
    <g id="Mondelēz-GSM-Analytics" stroke="none" stroke-width="1" fill="none" fill-rule="evenodd">
        <g id="mondelez-gsm-analytics-landing-page-v2-02" transform="translate(-149.000000, -277.000000)" fill="#FFFFFF">
            <g id="block-Cash" transform="translate(66.000000, 238.000000)">
                <g id="icon-cash-64x64" transform="translate(83.000000, 39.000000)">
                    <rect id="boundary" opacity="0" x="0" y="0" width="64" height="64"></rect>
                    <g id="noun_cash_1489313" transform="translate(0.000000, 1.000000)" fill-rule="nonzero">
                        <circle id="Oval" cx="46.5454545" cy="20.3636364" r="2.90909091"></circle>
                        <circle id="Oval" cx="17.4545455" cy="20.3636364" r="2.90909091"></circle>
                        <path d="M23.2727273,20.3636364 C23.2727273,25.1636364 27.2,29.0909091 32,29.0909091 C36.8,29.0909091 40.7272727,25.1636364 40.7272727,20.3636364 C40.7272727,15.5636364 36.8,11.6363636 32,11.6363636 C27.2,11.6363636 23.2727273,15.5636364 23.2727273,20.3636364 Z M37.8181818,20.3636364 C37.8181818,23.5636364 35.2,26.1818182 32,26.1818182 C28.8,26.1818182 26.1818182,23.5636364 26.1818182,20.3636364 C26.1818182,17.1636364 28.8,14.5454545 32,14.5454545 C35.2,14.5454545 37.8181818,17.1636364 37.8181818,20.3636364 Z" id="Shape"></path>
                        <path d="M59.6363636,0 L32,0 L4.36363636,0 C1.89090909,0 0,1.89090909 0,4.36363636 L0,36.3636364 C0,38.8363636 1.89090909,40.7272727 4.36363636,40.7272727 L23.2727273,40.7272727 C24.1454545,40.7272727 24.7272727,40.1454545 24.7272727,39.2727273 C24.7272727,38.4 24.1454545,37.8181818 23.2727273,37.8181818 L4.36363636,37.8181818 C3.49090909,37.8181818 2.90909091,37.2363636 2.90909091,36.3636364 L2.90909091,4.36363636 C2.90909091,3.49090909 3.49090909,2.90909091 4.36363636,2.90909091 L32,2.90909091 L59.6363636,2.90909091 C60.5090909,2.90909091 61.0909091,3.49090909 61.0909091,4.36363636 L61.0909091,27.6363636 C61.0909091,28.5090909 61.6727273,29.0909091 62.5454545,29.0909091 C63.4181818,29.0909091 64,28.5090909 64,27.6363636 L64,4.36363636 C64,1.89090909 62.1090909,0 59.6363636,0 Z" id="Path"></path>
                        <path d="M24.7272727,32 L11.3454545,32 C10.9090909,30.6909091 9.89090909,29.8181818 8.72727273,29.3818182 L8.72727273,11.3454545 C10.0363636,10.9090909 10.9090909,9.89090909 11.3454545,8.72727273 L52.5090909,8.72727273 C52.9454545,10.0363636 53.9636364,10.9090909 55.1272727,11.3454545 L55.1272727,23.2727273 C55.1272727,24.1454545 55.7090909,24.7272727 56.5818182,24.7272727 C57.4545455,24.7272727 58.0363636,24.1454545 58.0363636,23.2727273 L58.0363636,10.1818182 C58.0363636,9.30909091 57.4545455,8.72727273 56.5818182,8.72727273 C55.7090909,8.72727273 55.1272727,8.14545455 55.1272727,7.27272727 C55.1272727,6.4 54.5454545,5.81818182 53.6727273,5.81818182 L10.1818182,5.81818182 C9.30909091,5.81818182 8.72727273,6.4 8.72727273,7.27272727 C8.72727273,8.14545455 8.14545455,8.72727273 7.27272727,8.72727273 C6.4,8.72727273 5.81818182,9.30909091 5.81818182,10.1818182 L5.81818182,30.5454545 C5.81818182,31.4181818 6.4,32 7.27272727,32 C8.14545455,32 8.72727273,32.5818182 8.72727273,33.4545455 C8.72727273,34.3272727 9.30909091,34.9090909 10.1818182,34.9090909 L24.7272727,34.9090909 C25.6,34.9090909 26.1818182,34.3272727 26.1818182,33.4545455 C26.1818182,32.5818182 25.6,32 24.7272727,32 Z" id="Path"></path>
                        <path d="M50.9090909,26.1818182 C49.1636364,26.1818182 47.4181818,26.6181818 45.9636364,27.3454545 C45.2363636,27.6363636 44.9454545,28.5090909 45.2363636,29.2363636 C45.5272727,29.9636364 46.4,30.2545455 47.1272727,29.9636364 C48.2909091,29.3818182 49.6,29.0909091 50.9090909,29.0909091 C55.7090909,29.0909091 59.6363636,33.0181818 59.6363636,37.8181818 C59.6363636,39.5636364 59.0545455,41.3090909 58.0363636,42.7636364 C57.6,43.4909091 57.7454545,44.3636364 58.3272727,44.8 C58.6181818,44.9454545 58.9090909,45.0909091 59.2,45.0909091 C59.6363636,45.0909091 60.0727273,44.9454545 60.3636364,44.5090909 C61.6727273,42.6181818 62.4,40.2909091 62.4,37.8181818 C62.5454545,31.4181818 57.3090909,26.1818182 50.9090909,26.1818182 Z" id="Path"></path>
                        <path d="M52.3636364,36.3636364 L52.3636364,34.9090909 C52.3636364,34.0363636 51.7818182,33.4545455 50.9090909,33.4545455 C50.0363636,33.4545455 49.4545455,34.0363636 49.4545455,34.9090909 L49.4545455,36.3636364 C49.4545455,37.2363636 50.0363636,37.8181818 50.9090909,37.8181818 C51.7818182,37.8181818 52.3636364,37.2363636 52.3636364,36.3636364 Z" id="Path"></path>
                        <path d="M29.0909091,40.7272727 C29.0909091,35.9272727 33.0181818,32 37.8181818,32 C40.1454545,32 42.4727273,32.8727273 44.0727273,34.6181818 C44.6545455,35.2 45.5272727,35.2 46.1090909,34.6181818 C46.6909091,34.0363636 46.6909091,33.1636364 46.1090909,32.5818182 C43.9272727,30.4 41.0181818,29.0909091 37.8181818,29.0909091 C31.4181818,29.0909091 26.1818182,34.3272727 26.1818182,40.7272727 C26.1818182,43.9272727 27.4909091,46.8363636 29.6727273,49.0181818 C29.9636364,49.3090909 30.2545455,49.4545455 30.6909091,49.4545455 C31.1272727,49.4545455 31.4181818,49.3090909 31.7090909,49.0181818 C32.2909091,48.4363636 32.2909091,47.5636364 31.7090909,46.9818182 C29.9636364,45.2363636 29.0909091,43.0545455 29.0909091,40.7272727 Z" id="Path"></path>
                        <path d="M45.0909091,37.8181818 C38.6909091,37.8181818 33.4545455,43.0545455 33.4545455,49.4545455 C33.4545455,55.8545455 38.6909091,61.0909091 45.0909091,61.0909091 C51.4909091,61.0909091 56.7272727,55.8545455 56.7272727,49.4545455 C56.7272727,43.0545455 51.4909091,37.8181818 45.0909091,37.8181818 Z M45.0909091,58.1818182 C40.2909091,58.1818182 36.3636364,54.2545455 36.3636364,49.4545455 C36.3636364,44.6545455 40.2909091,40.7272727 45.0909091,40.7272727 C49.8909091,40.7272727 53.8181818,44.6545455 53.8181818,49.4545455 C53.8181818,54.2545455 49.8909091,58.1818182 45.0909091,58.1818182 Z" id="Shape"></path>
                        <path d="M45.0909091,45.0909091 C44.2181818,45.0909091 43.6363636,45.6727273 43.6363636,46.5454545 L43.6363636,52.3636364 C43.6363636,53.2363636 44.2181818,53.8181818 45.0909091,53.8181818 C45.9636364,53.8181818 46.5454545,53.2363636 46.5454545,52.3636364 L46.5454545,46.5454545 C46.5454545,45.6727273 45.9636364,45.0909091 45.0909091,45.0909091 Z" id="Path"></path>
                        <circle id="Oval" cx="37.8181818" cy="37.8181818" r="1.45454545"></circle>
                    </g>
                </g>
            </g>
        </g>
    </g>
</svg>