<svg width="64" height="64" viewBox="0 0 64 64" fill="none" xmlns="http://www.w3.org/2000/svg">
<g id="noun_cost capital_3159673">
<path id="Shape" fill-rule="evenodd" clip-rule="evenodd" d="M64 13.6981V21.3977L61.1768 22.3019C60.9197 23.1009 60.6018 23.871 60.2281 24.6028L61.5825 27.2341L59.7585 29.0581C61.0157 29.4534 61.9355 30.6147 61.9355 32V34.0645C61.9355 35.7719 60.5461 37.1613 58.8387 37.1613H57.6165C57.7321 37.4854 57.8064 37.8302 57.8064 38.1936V40.2581C57.8064 40.6214 57.7321 40.9662 57.6165 41.2903H58.8387C60.5461 41.2903 61.9355 42.6797 61.9355 44.3871V46.4516C61.9355 48.159 60.5461 49.5484 58.8387 49.5484H57.6165C57.7321 49.8725 57.8064 50.2173 57.8064 50.5806V52.6452C57.8064 54.3525 56.417 55.7419 54.7097 55.7419H37.1613V58.8387C37.1613 61.6846 34.8459 64 32 64H5.16129C2.31535 64 0 61.6846 0 58.8387V21.6774C0 18.8315 2.31535 16.5161 5.16129 16.5161H28.9032V13.6991L31.7265 12.7928C31.9835 11.9938 32.3014 11.2237 32.6751 10.4919L31.3208 7.86065L36.7649 2.41652L39.3961 3.77084C40.129 3.39613 40.9001 3.07819 41.697 2.82219L42.6013 0H50.3009L51.2072 2.82323C52.0041 3.07923 52.7742 3.39716 53.5081 3.77187L56.1394 2.41755L61.5835 7.86168L60.2292 10.4929C60.6028 11.2248 60.9208 11.9948 61.1778 12.7938L64 13.6981ZM32 61.9355C33.7074 61.9355 35.0968 60.5461 35.0968 58.8387V21.6774C35.0968 19.9701 33.7074 18.5806 32 18.5806H5.16129C3.45394 18.5806 2.06452 19.9701 2.06452 21.6774V58.8387C2.06452 60.5461 3.45394 61.9355 5.16129 61.9355H32ZM55.7419 52.6452C55.7419 53.2139 55.2795 53.6774 54.7097 53.6774H37.1613V49.5484H39.2258V51.6129H41.2903V49.5484H43.3548V51.6129H45.4194V49.5484H47.4839V51.6129H49.5484V49.5484H51.6129V51.6129H53.6774V49.5484H54.7097C55.2795 49.5484 55.7419 50.0119 55.7419 50.5806V52.6452ZM58.8387 47.4839C59.4085 47.4839 59.871 47.0204 59.871 46.4516V44.3871C59.871 43.8183 59.4085 43.3548 58.8387 43.3548H57.8064V45.4194H55.7419V43.3548H54.7097H53.6774V45.4194H51.6129V43.3548H49.5484V45.4194H47.4839V43.3548H45.4194V45.4194H43.3548V43.3548H41.2903V45.4194H39.2258V43.3548H37.1613V47.4839H54.7097H58.8387ZM55.7419 40.2581C55.7419 40.8268 55.2795 41.2903 54.7097 41.2903H37.1613V37.1613H39.2258V39.2258H41.2903V37.1613H43.3548V39.2258H45.4194V37.1613H47.4839V39.2258H49.5484V37.1613H51.6129V39.2258H53.6774V37.1613H54.7097C55.2795 37.1613 55.7419 37.6248 55.7419 38.1935V40.2581ZM58.8387 35.0968C59.4085 35.0968 59.871 34.6333 59.871 34.0645V32C59.871 31.4312 59.4085 30.9677 58.8387 30.9677H57.8064V33.0323H55.7419V30.9677H53.6774V33.0323H51.6129V30.9677H49.5484V33.0323H47.4839V30.9677H45.4194V33.0323H43.3548V30.9677H41.2903V33.0323H39.2258V30.9677H37.1613V35.0968H54.7097H58.8387ZM59.5035 20.671L59.3528 21.2046C59.0637 22.2255 58.6632 23.1959 58.1636 24.0908L57.8921 24.5739L59.0586 26.8397L56.9941 28.9032H46.4516C52.7123 28.9032 57.8064 23.809 57.8064 17.5484C57.8064 11.2877 52.7123 6.19355 46.4516 6.19355C40.191 6.19355 35.0968 11.2877 35.0968 17.5484C35.0968 17.5536 35.0971 17.5587 35.0974 17.5639C35.0976 17.568 35.0978 17.5721 35.0978 17.5763C34.2328 16.9197 33.1675 16.5161 32 16.5161H30.9677V15.2041L33.3997 14.4248L33.5504 13.8911C33.8395 12.8702 34.24 11.8999 34.7396 11.0049L35.0111 10.5218L33.8446 8.256L37.1603 4.94142L39.425 6.10684L39.9092 5.83639C40.8072 5.33368 41.7786 4.93316 42.7964 4.64619L43.3301 4.49548L44.1074 2.06452H48.7948L49.5732 4.49652L50.1068 4.64723C51.1246 4.93419 52.096 5.33574 52.9941 5.83742L53.4782 6.10787L55.743 4.94245L59.0586 8.25703L57.8921 10.5228L58.1636 11.0059C58.6632 11.9009 59.0637 12.8712 59.3528 13.8921L59.5035 14.4258L61.9355 15.2041V19.8916L59.5035 20.671ZM46.4516 28.9032H37.1613V24.0568C39.2175 26.9822 42.6116 28.9032 46.4516 28.9032ZM46.4516 8.25806C41.3285 8.25806 37.1613 12.4263 37.1613 17.5484C37.1613 22.6705 41.3285 26.8387 46.4516 26.8387C51.5747 26.8387 55.7419 22.6705 55.7419 17.5484C55.7419 12.4263 51.5747 8.25806 46.4516 8.25806Z" fill="white"/>
<path id="Path" d="M46.4522 20.6452C45.8824 20.6452 45.42 20.1817 45.42 19.613H43.3555C43.3555 20.957 44.2215 22.0924 45.42 22.5198V24.7742H47.4845V22.5198C48.683 22.0924 49.549 20.957 49.549 19.613C49.549 17.9056 48.1596 16.5162 46.4522 16.5162C45.8824 16.5162 45.42 16.0527 45.42 15.4839C45.42 14.9151 45.8824 14.4517 46.4522 14.4517C47.022 14.4517 47.4845 14.9151 47.4845 15.4839H49.549C49.549 14.1399 48.683 13.0044 47.4845 12.5771V10.3226H45.42V12.5771C44.2215 13.0044 43.3555 14.1399 43.3555 15.4839C43.3555 17.1913 44.7449 18.5807 46.4522 18.5807C47.022 18.5807 47.4845 19.0442 47.4845 19.613C47.4845 20.1817 47.022 20.6452 46.4522 20.6452Z" fill="white"/>
<path id="Shape_2" fill-rule="evenodd" clip-rule="evenodd" d="M6.19342 20.6451H30.9676C32.1062 20.6451 33.0321 21.5711 33.0321 22.7097V33.0322C33.0321 34.1708 32.1062 35.0968 30.9676 35.0968H6.19342C5.05484 35.0968 4.12891 34.1708 4.12891 33.0322V22.7097C4.12891 21.5711 5.05484 20.6451 6.19342 20.6451ZM6.19342 22.7097V33.0322H30.9686L30.9676 22.7097H6.19342Z" fill="white"/>
<path id="Shape_3" fill-rule="evenodd" clip-rule="evenodd" d="M6.19342 37.1613H10.3225C11.461 37.1613 12.387 38.0872 12.387 39.2258V41.2903C12.387 42.4289 11.461 43.3548 10.3225 43.3548H6.19342C5.05484 43.3548 4.12891 42.4289 4.12891 41.2903V39.2258C4.12891 38.0872 5.05484 37.1613 6.19342 37.1613ZM6.19342 39.2258V41.2903H10.3235L10.3225 39.2258H6.19342Z" fill="white"/>
<path id="Shape_4" fill-rule="evenodd" clip-rule="evenodd" d="M16.5157 37.1613H20.6447C21.7833 37.1613 22.7092 38.0872 22.7092 39.2258V41.2903C22.7092 42.4289 21.7833 43.3548 20.6447 43.3548H16.5157C15.3771 43.3548 14.4512 42.4289 14.4512 41.2903V39.2258C14.4512 38.0872 15.3771 37.1613 16.5157 37.1613ZM16.5157 39.2258V41.2903H20.6458L20.6447 39.2258H16.5157Z" fill="white"/>
<path id="Shape_5" fill-rule="evenodd" clip-rule="evenodd" d="M26.838 37.1613H30.967C32.1056 37.1613 33.0315 38.0872 33.0315 39.2258V41.2903C33.0315 42.4289 32.1056 43.3548 30.967 43.3548H26.838C25.6994 43.3548 24.7734 42.4289 24.7734 41.2903V39.2258C24.7734 38.0872 25.6994 37.1613 26.838 37.1613ZM26.838 39.2258V41.2903H30.968L30.967 39.2258H26.838Z" fill="white"/>
<path id="Shape_6" fill-rule="evenodd" clip-rule="evenodd" d="M6.19342 45.4193H10.3225C11.461 45.4193 12.387 46.3452 12.387 47.4838V49.5483C12.387 50.6869 11.461 51.6129 10.3225 51.6129H6.19342C5.05484 51.6129 4.12891 50.6869 4.12891 49.5483V47.4838C4.12891 46.3452 5.05484 45.4193 6.19342 45.4193ZM6.19342 47.4838V49.5483H10.3235L10.3225 47.4838H6.19342Z" fill="white"/>
<path id="Shape_7" fill-rule="evenodd" clip-rule="evenodd" d="M16.5157 45.4193H20.6447C21.7833 45.4193 22.7092 46.3452 22.7092 47.4838V49.5483C22.7092 50.6869 21.7833 51.6129 20.6447 51.6129H16.5157C15.3771 51.6129 14.4512 50.6869 14.4512 49.5483V47.4838C14.4512 46.3452 15.3771 45.4193 16.5157 45.4193ZM16.5157 47.4838V49.5483H20.6458L20.6447 47.4838H16.5157Z" fill="white"/>
<path id="Shape_8" fill-rule="evenodd" clip-rule="evenodd" d="M6.19342 53.6774H10.3225C11.461 53.6774 12.387 54.6033 12.387 55.7419V57.8064C12.387 58.945 11.461 59.8709 10.3225 59.8709H6.19342C5.05484 59.8709 4.12891 58.945 4.12891 57.8064V55.7419C4.12891 54.6033 5.05484 53.6774 6.19342 53.6774ZM6.19342 55.7419V57.8064H10.3235L10.3225 55.7419H6.19342Z" fill="white"/>
<path id="Shape_9" fill-rule="evenodd" clip-rule="evenodd" d="M16.5157 53.6774H20.6447C21.7833 53.6774 22.7092 54.6033 22.7092 55.7419V57.8064C22.7092 58.945 21.7833 59.8709 20.6447 59.8709H16.5157C15.3771 59.8709 14.4512 58.945 14.4512 57.8064V55.7419C14.4512 54.6033 15.3771 53.6774 16.5157 53.6774ZM16.5157 55.7419V57.8064H20.6458L20.6447 55.7419H16.5157Z" fill="white"/>
<path id="Shape_10" fill-rule="evenodd" clip-rule="evenodd" d="M26.838 45.4193H30.967C32.1056 45.4193 33.0315 46.3452 33.0315 47.4838V57.8064C33.0315 58.945 32.1056 59.8709 30.967 59.8709H26.838C25.6994 59.8709 24.7734 58.945 24.7734 57.8064V47.4838C24.7734 46.3452 25.6994 45.4193 26.838 45.4193ZM26.838 47.4838V57.8064H30.968L30.967 47.4838H26.838Z" fill="white"/>
<rect id="Rectangle" x="18.5801" y="28.9032" width="2.06452" height="2.06452" fill="white"/>
<rect id="Rectangle_2" x="26.8379" y="28.9032" width="2.06452" height="2.06452" fill="white"/>
<rect id="Rectangle_3" x="22.709" y="28.9032" width="2.06452" height="2.06452" fill="white"/>
</g>
</svg>
