<?xml version="1.0" encoding="UTF-8"?>
<svg width="64px" height="64px" viewBox="0 0 64 64" version="1.1" xmlns="http://www.w3.org/2000/svg" xmlns:xlink="http://www.w3.org/1999/xlink">
    <title>icon-cost-effectiveness-64x64</title>
    <g id="Mondelēz-GSM-Analytics" stroke="none" stroke-width="1" fill="none" fill-rule="evenodd">
        <g id="mondelez-gsm-analytics-landing-page-v2-02" transform="translate(-411.000000, -277.000000)" fill="#FFFFFF">
            <g id="block-Cost-Effectiveness" transform="translate(328.000000, 238.000000)">
                <g id="icon-cost-effectiveness-64x64" transform="translate(83.000000, 39.000000)">
                    <rect id="boundary" opacity="0" x="0" y="0" width="64" height="64"></rect>
                    <g id="noun_investment-in-project_1985521" transform="translate(0.000000, 1.000000)" fill-rule="nonzero">
                        <path d="M19.8355557,29.6119403 L10.7316084,29.6119403 C10.0798102,29.6119403 9.55223881,30.0398806 9.55223881,30.5671642 C9.55223881,31.0944478 10.0798102,31.5223881 10.7316084,31.5223881 L19.8355557,31.5223881 C20.487354,31.5223881 21.0149254,31.0944478 21.0149254,30.5671642 C21.0149254,30.0398806 20.487354,29.6119403 19.8355557,29.6119403 Z" id="Path"></path>
                        <path d="M17.0355546,37.2537313 L10.6659379,37.2537313 C10.0504336,37.2537313 9.55223881,37.6816716 9.55223881,38.2089552 C9.55223881,38.7362388 10.0504336,39.1641791 10.6659379,39.1641791 L17.0355546,39.1641791 C17.651059,39.1641791 18.1492537,38.7362388 18.1492537,38.2089552 C18.1492537,37.6816716 17.651059,37.2537313 17.0355546,37.2537313 Z" id="Path"></path>
                        <path d="M61.7646265,50.288765 C62.4570602,48.6655721 62.884241,46.0839592 62.884241,43.7541543 C62.884241,34.9718668 55.4725783,26.7265114 47.8959036,23.9744439 L49.554506,17.6327568 C49.7673253,16.692932 49.3771566,16.1079627 48.6500241,16.1079627 C48.4464578,16.1079627 48.2166747,16.1536755 47.9660723,16.2505247 L47.0361446,16.610029 L47.0361446,3.09917512 C47.0361446,1.3946288 45.6481928,0 43.9518072,0 L3.08433735,0 C1.38795181,0 0,1.3946288 0,3.09917512 L0,52.685977 C0,54.3905233 1.38795181,55.7851521 3.08433735,55.7851521 L21.6435663,55.7851521 C22.0206265,58.8014243 24.5813976,61.1343284 27.6904096,61.1343284 C29.6173494,61.1343284 31.333012,60.2363424 32.4510843,58.8378396 C35.4706506,60.2944519 39.0099277,61.1343284 42.7951807,61.1343284 C46.5804337,61.1343284 50.1197108,60.2944519 53.1392771,58.8378396 C54.2573494,60.2363424 55.973012,61.1343284 57.8999518,61.1343284 C61.2688193,61.1343284 64,58.3969819 64,55.0173315 C64,53.1128884 63.1294458,51.4106664 61.7646265,50.288765 Z M39.9313735,23.3840511 L38.8402892,19.2117866 L39.8804819,19.6139045 C40.9222169,20.0175721 42.0410602,20.1027994 42.7959518,20.1027994 C43.5508434,20.1027994 44.6689157,20.0183469 45.7098795,19.6146793 L46.7500723,19.2125613 L45.658988,23.3840511 C45.6104096,23.5715511 45.5934458,23.7582764 45.5911325,23.9450017 L39.9992289,23.9450017 C39.9969157,23.7582764 39.9799518,23.5715511 39.9313735,23.3840511 Z M21.7977831,53.4607708 L3.08433735,53.4607708 C2.66640964,53.4607708 2.31325301,53.1059152 2.31325301,52.685977 L2.31325301,3.09917512 C2.31325301,2.67923689 2.66640964,2.32438134 3.08433735,2.32438134 L43.9518072,2.32438134 C44.3697349,2.32438134 44.7228916,2.67923689 44.7228916,3.09917512 L44.7228916,17.4940687 C44.1715663,17.6800192 43.4868434,17.7776433 42.7951807,17.7776433 C42.0395181,17.7776433 41.2846265,17.666073 40.7117108,17.4444819 L37.6235181,16.2505247 C37.3729157,16.1536755 37.1431325,16.1079627 36.9395663,16.1079627 C36.2124337,16.1079627 35.8222651,16.692932 36.0350843,17.6327568 L37.6929157,23.9744439 C30.1177831,26.7272862 22.7076627,34.9718668 22.7053494,43.7526047 C22.7045783,46.0824096 23.1333012,48.6655721 23.8249639,50.2872154 C22.8472289,51.0922262 22.1293494,52.1986317 21.7977831,53.4607708 Z M57.8999518,58.809947 C56.7464096,58.809947 55.6676627,58.2892856 54.9420723,57.3820021 C54.491759,56.8179522 53.8224578,56.5134583 53.138506,56.5134583 C52.8007711,56.5134583 52.4584096,56.5878385 52.1384096,56.7427972 C49.3339759,58.0948124 46.1039036,58.809947 42.7951807,58.809947 C39.4864578,58.809947 36.2563855,58.0948124 33.4519518,56.7427972 C33.1311807,56.5878385 32.7895904,56.5134583 32.4518554,56.5134583 C31.7679036,56.5134583 31.0986024,56.818727 30.6482892,57.3820021 C29.9226988,58.2892856 28.8447229,58.809947 27.6904096,58.809947 C25.6023133,58.809947 23.9036145,57.1092747 23.9036145,55.0173315 C23.9036145,53.8791594 24.4094458,52.8107188 25.2915663,52.0855118 C26.0888675,51.4292615 26.358747,50.3236308 25.9523855,49.3714092 C25.3941205,48.0627825 25.0193735,45.8042586 25.0201446,43.7533795 C25.0216867,36.0139644 31.8195663,28.7223802 38.2164819,26.2686083 L47.3738795,26.2686083 C53.7723373,28.723155 60.570988,36.0139644 60.570988,43.7541543 C60.570988,45.806583 60.197012,48.0651069 59.638747,49.3729588 C59.2331566,50.3251803 59.5022651,51.4315859 60.2995663,52.0878362 C61.1816867,52.8122684 61.686747,53.8799342 61.686747,55.0173315 C61.686747,57.1092747 59.9880482,58.809947 57.8999518,58.809947 Z" id="Shape"></path>
                        <path d="M46.6216585,38.4576221 C46.6216585,39.0525446 47.0899869,39.5351014 47.6690382,39.5351014 C48.2480896,39.5351014 48.7164179,39.0525446 48.7164179,38.4576221 C48.7164179,36.6774723 47.6046992,34.6364187 44.5852532,34.1654063 L44.5852532,33.632054 C44.5852532,32.994802 44.083259,32.4776119 43.4630606,32.4776119 C42.8428622,32.4776119 42.3408681,32.994802 42.3408681,33.632054 L42.3408681,34.1230768 C39.5129429,34.4771057 38.2097034,36.5320126 38.2097034,38.4583917 C38.2097034,41.257529 40.4136895,42.1318265 42.3408681,42.6551736 L42.3408681,47.7147085 C41.0840125,47.4684275 40.3037146,46.6841765 40.3037146,45.5659069 C40.3037146,44.9709844 39.8353863,44.4884276 39.2563349,44.4884276 C38.6772836,44.4884276 38.2089552,44.9709844 38.2089552,45.5659069 C38.2089552,47.8886444 39.8698002,49.5779781 42.34012,49.9012218 L42.34012,50.4276474 C42.34012,51.0648995 42.8421141,51.5820896 43.4623125,51.5820896 C44.0825109,51.5820896 44.584505,51.0648995 44.584505,50.4276474 L44.584505,49.8642797 C48.2727778,49.3478593 48.7156698,46.753443 48.7156698,45.5666765 C48.7156698,42.5812893 46.5648008,41.5907779 44.584505,41.0227924 L44.584505,36.3596159 C45.5840045,36.5781903 46.6216585,37.1246262 46.6216585,38.4576221 Z M40.3029665,38.4576221 C40.3029665,38.1274516 40.4144376,36.6412998 42.34012,36.2926583 L42.34012,40.4124774 C40.9194242,39.9760982 40.3029665,39.5243266 40.3029665,38.4576221 Z M46.6216585,45.5659069 C46.6216585,46.0815577 46.6134291,47.3114234 44.584505,47.6900804 L44.584505,43.2762634 C45.983505,43.7480454 46.6216585,44.3052561 46.6216585,45.5659069 Z" id="Shape"></path>
                        <path d="M12.4470462,24.8358209 C13.5181244,24.8358209 14.3874053,23.9814687 14.3874053,22.9253731 C14.3874053,22.8352 14.3726585,22.7496119 14.3602402,22.6624955 L19.1645694,17.9314627 C19.2530498,17.9444537 19.3399778,17.958209 19.4315628,17.958209 C19.7994549,17.958209 20.1401819,17.8512239 20.4335642,17.6762269 L25.3287022,19.6042507 C25.5530077,20.415809 26.2981056,21.0149254 27.1937753,21.0149254 C28.2648536,21.0149254 29.1341345,20.1605731 29.1341345,19.1044776 C29.1341345,18.9409433 29.1069694,18.7850507 29.0673861,18.6337433 L33.346266,13.3670209 C33.3656696,13.3677851 33.3835209,13.3731343 33.4029245,13.3731343 C34.4740027,13.3731343 35.3432836,12.5187821 35.3432836,11.4626866 C35.3432836,10.4081194 34.4740027,9.55223881 33.4029245,9.55223881 C32.330294,9.55223881 31.4625654,10.4081194 31.4625654,11.4626866 C31.4625654,11.6262209 31.4897304,11.7821134 31.5285376,11.9334209 L27.2504338,17.2001433 C27.2310302,17.1993791 27.2131789,17.1940299 27.1937753,17.1940299 C26.8251071,17.1940299 26.4851562,17.3010149 26.1917739,17.4760119 L21.296636,15.5479881 C21.0723305,14.737194 20.3264564,14.1373134 19.4323389,14.1373134 C18.3597084,14.1373134 17.4919798,14.993194 17.4919798,16.0477612 C17.4919798,16.1379343 17.5067266,16.2235224 17.5191449,16.3106388 L12.7148157,21.0416716 C12.6263353,21.0286806 12.5394073,21.0149254 12.4478223,21.0149254 C11.3751918,21.0149254 10.5074627,21.870806 10.5074627,22.9253731 C10.5066871,23.9814687 11.3744157,24.8358209 12.4470462,24.8358209 Z" id="Path"></path>
                    </g>
                </g>
            </g>
        </g>
    </g>
</svg>