<svg width="57" height="54" viewBox="0 0 57 54" fill="none" xmlns="http://www.w3.org/2000/svg">
<path d="M9.72961 52.11C10.2696 51.57 10.6296 51.03 10.8996 50.4C10.8996 50.31 10.9896 50.31 10.9896 50.22C11.2596 49.59 11.3496 48.87 11.3496 48.24C11.3496 48.15 11.3496 48.15 11.3496 48.06V41.13C11.3496 39.6 10.8096 38.34 9.72961 37.17C8.64961 36 7.29961 35.46 5.76961 35.46C4.14961 35.46 2.79961 36 1.71961 37.17C0.639609 38.34 0.0996094 39.6 0.0996094 41.13V48.15C0.0996094 49.77 0.639609 51.03 1.71961 52.2C2.79961 53.28 4.14961 53.82 5.67961 53.82C7.11961 53.82 8.19961 53.28 9.27961 52.47C9.45961 52.29 9.63961 52.29 9.72961 52.11Z" fill="white"/>
<path d="M56.709 48.15V21.2399C56.709 19.7099 56.169 18.4499 55.089 17.2799C54.009 16.1999 52.659 15.5699 51.129 15.5699C49.509 15.5699 48.159 16.1099 47.079 17.2799C45.999 18.4499 45.459 19.7099 45.459 21.2399V48.06C45.459 48.15 45.459 48.15 45.459 48.24C45.459 48.9599 45.549 49.68 45.819 50.31C45.819 50.4 45.909 50.4 45.909 50.49C46.179 51.12 46.539 51.66 47.079 52.2C48.159 53.28 49.509 53.82 51.129 53.82C51.939 53.82 52.749 53.64 53.379 53.28C54.009 53.01 54.549 52.65 54.999 52.2C56.169 51.03 56.709 49.68 56.709 48.15Z" fill="white"/>
<path d="M24.3993 52.1099C24.4893 52.1999 24.6693 52.2899 24.7593 52.3799C25.7493 53.2799 27.0093 53.7299 28.4493 53.7299C29.9793 53.7299 31.3293 53.1899 32.4093 52.1099C33.4893 51.0299 34.0293 49.6799 34.0293 48.0599V33.1199C34.0293 31.5899 33.4893 30.33 32.4093 29.16C31.3293 28.08 29.9793 27.45 28.4493 27.45C26.8293 27.45 25.4793 27.99 24.3993 29.16C23.3193 30.24 22.7793 31.5899 22.7793 33.1199V48.0599C22.7793 49.6799 23.3193 51.0299 24.3993 52.1099Z" fill="white"/>
<path d="M50.0496 5.31C49.5996 3.78 48.6996 2.61 47.2596 1.89C46.8996 1.71 46.5396 1.53 46.2696 1.35C44.2896 0.45 42.1296 0 39.7896 0C37.7196 0 35.8296 0.36 34.0296 1.08C33.9396 1.17 33.7596 1.17 33.6696 1.26C31.7796 2.07 30.0696 3.15 28.4496 4.41C26.7396 3.06 24.9396 1.98 23.1396 1.17C23.0496 1.17 22.9596 1.17 22.8696 1.08C22.8696 1.08 22.8696 1.08 22.7796 1.08C20.9796 0.36 19.0896 0 17.0196 0C14.6796 0 12.4296 0.45 10.3596 1.44C8.28961 2.43 6.48961 3.6 4.95961 5.22C3.42961 6.75 2.16961 8.64 1.35961 10.71C0.549609 12.6 0.189609 14.49 0.0996094 16.47C0.0996094 16.56 0.0996094 16.65 0.0996094 16.83V17.1V25.65C0.0996094 27.27 0.639609 28.53 1.71961 29.61C2.61961 30.51 3.78961 31.05 5.04961 31.14C5.31961 31.14 5.49961 31.23 5.76961 31.23C6.03961 31.23 6.21961 31.23 6.48961 31.14C7.56961 30.96 8.55961 30.6 9.36961 29.88C9.54961 29.79 9.63961 29.7 9.81961 29.61C10.3596 29.07 10.7196 28.53 10.9896 27.9C10.9896 27.81 11.0796 27.81 11.0796 27.72C11.2596 27.18 11.3496 26.64 11.4396 26.1C11.4396 25.92 11.4396 25.83 11.4396 25.74C11.4396 25.65 11.4396 25.65 11.4396 25.56V17.01C11.6196 15.66 12.0696 14.58 13.0596 13.59C14.1396 12.51 15.4896 11.97 17.0196 11.97C18.6396 11.97 19.9896 12.51 21.0696 13.59C22.1496 14.67 22.6896 15.57 22.6896 17.19C22.6896 18.9 23.2296 20.25 24.3096 21.42C24.3996 21.51 24.8496 21.78 24.9396 21.87C25.9296 22.68 27.0096 23.13 28.3596 23.13C29.6196 23.13 30.7896 22.68 31.7796 21.87C31.9596 21.78 32.1396 21.6 32.3196 21.42C33.3996 20.25 33.9396 18.9 33.9396 17.19C33.9396 15.57 34.4796 14.67 35.6496 13.59C36.7296 12.51 38.0796 11.97 39.6996 11.97C40.3296 11.97 40.9596 12.06 41.4996 12.24L41.5896 12.33C41.8596 12.51 42.2196 12.6 42.4896 12.69C43.6596 13.05 44.8296 13.05 45.9996 12.69C46.1796 12.6 46.2696 12.51 46.4496 12.51C47.7096 11.97 48.7896 11.07 49.5096 9.72C50.2296 8.28 50.4096 6.84 50.0496 5.31Z" fill="white"/>
</svg>
