<?xml version="1.0" encoding="UTF-8"?>
<svg width="64px" height="64px" viewBox="0 0 64 64" version="1.1" xmlns="http://www.w3.org/2000/svg" xmlns:xlink="http://www.w3.org/1999/xlink">
    <title>icon-sourcing-64x64</title>
    <g id="Mondelēz-GSM-Analytics" stroke="none" stroke-width="1" fill="none" fill-rule="evenodd">
        <g id="mondelez-gsm-analytics-landing-page-v2-02" transform="translate(-673.000000, -277.000000)" fill="#FFFFFF">
            <g id="block-Sourcing" transform="translate(590.000000, 238.000000)">
                <g id="icon-sourcing-64x64" transform="translate(83.000000, 39.000000)">
                    <rect id="boundary" opacity="0" x="0" y="0" width="64" height="64"></rect>
                    <g id="noun_information-sources_3764608" transform="translate(0.000000, 3.000000)">
                        <path d="M50.1769189,26.6501667 C48.6272115,27.8535899 46.6820773,28.571301 44.5712296,28.571301 C39.5255378,28.571301 35.4284133,24.4741765 35.4284133,19.4284847 C35.4284133,14.3827929 39.5255378,10.2856684 44.5712296,10.2856684 C49.6169214,10.2856684 53.7140459,14.3827929 53.7140459,19.4284847 C53.7140459,21.5393324 52.9963348,23.4844666 51.7929116,25.034174 L54.2854719,27.5267343 L55.1917536,26.6204526 C55.6374659,26.1735974 56.3620341,26.1735974 56.8077464,26.6204526 L63.6648586,33.4775648 C64.1117138,33.9232771 64.1117138,34.6478453 63.6648586,35.0935576 L60.2363025,38.5221137 C59.7905902,38.9689689 59.066022,38.9689689 58.6203097,38.5221137 L51.7631975,31.6650015 C51.3163423,31.2192892 51.3163423,30.494721 51.7631975,30.0490087 L52.6694792,29.142727 L50.1769189,26.6501667 Z M54.1871867,30.8570051 L59.4283061,36.0981246 L61.2408695,34.2855612 L55.99975,29.0444418 L54.1871867,30.8570051 Z M44.5712296,12.5713724 C48.3552127,12.5713724 51.4283418,15.6445016 51.4283418,19.4284847 C51.4283418,23.2124678 48.3552127,26.2855969 44.5712296,26.2855969 C40.7872465,26.2855969 37.7141173,23.2124678 37.7141173,19.4284847 C37.7141173,15.6445016 40.7872465,12.5713724 44.5712296,12.5713724 Z" id="Shape"></path>
                        <path d="M42.2855255,5.7142602 C42.2855255,6.34543996 41.7738532,6.85711225 41.1426735,6.85711225 C40.5114937,6.85711225 39.9998214,6.34543996 39.9998214,5.7142602 C39.9998214,5.08308045 40.5114937,4.57140816 41.1426735,4.57140816 C41.7738532,4.57140816 42.2855255,5.08308045 42.2855255,5.7142602 Z" id="Path"></path>
                        <path d="M31.9993543,6.85596939 L36.5707853,6.85596939 C37.2014659,6.85596939 37.7136076,6.34397168 37.7136076,5.71311735 C37.7136076,5.08226303 37.2014659,4.57026531 36.5707853,4.57026531 L31.9993543,4.57026531 C31.3685308,4.57026531 30.856532,5.08226303 30.856532,5.71311735 C30.856532,6.34397168 31.3685308,6.85596939 31.9993543,6.85596939 L31.9993543,6.85596939 Z" id="Path"></path>
                        <path d="M47.9997857,43.4283776 L60.5711582,43.4283776 C61.2020125,43.4283776 61.7140102,43.9403753 61.7140102,44.5712296 C61.7140102,44.5712296 61.7140102,47.4283597 61.7140102,50.2854898 C61.7140102,54.0729015 58.6443096,57.142602 54.856898,57.142602 L18.2856327,57.142602 C16.4707836,57.142602 14.7165057,56.4214624 13.4330829,55.1380396 C12.14966,53.8546167 11.4285204,52.1140531 11.4285204,50.299204 L11.4285204,13.7142245 L1.14285204,13.7142245 C0.511997714,13.7142245 0,13.2022268 0,12.5713724 L0,6.84339802 C0,5.02854898 0.721139638,3.28798532 2.00456248,2.00456248 C3.28798532,0.721139638 5.02854898,0 6.84339802,0 L41.1426735,0 C42.9609511,0 44.7049433,0.72228249 45.9917947,2.00799104 C47.2775032,3.29484243 47.9997857,5.03883465 47.9997857,6.85711225 C47.9997857,7.48796657 47.487788,7.99996429 46.8569337,7.99996429 C46.2260793,7.99996429 45.7140816,7.48796657 45.7140816,6.85711225 C45.7140816,5.64454623 45.2329409,4.4822657 44.374659,3.62512667 C43.51752,2.76684479 42.3552395,2.28570408 41.1426735,2.28570408 C37.9724019,2.28570408 11.9759465,2.28570408 11.9759465,2.28570408 C13.092513,3.53598421 13.7142245,5.15769126 13.7142245,6.84339802 L13.7142245,50.299204 C13.7142245,51.5083415 14.1942223,52.6671935 15.0490757,53.5220468 C15.903929,54.3769001 17.062781,54.856898 18.2719184,54.856898 C18.2810612,54.856898 18.2902041,54.856898 18.2993469,54.856898 C19.5084843,54.856898 20.6673363,54.3769001 21.5221896,53.5220468 C22.377043,52.6671935 22.8570408,51.5083415 22.8570408,50.299204 L22.8570408,44.5712296 C22.8570408,43.9403753 23.3690385,43.4283776 23.9998929,43.4283776 L45.7140816,43.4283776 L45.7140816,31.9998571 C45.7140816,31.3690028 46.2260793,30.8570051 46.8569337,30.8570051 C47.487788,30.8570051 47.9997857,31.3690028 47.9997857,31.9998571 L47.9997857,43.4283776 Z M59.4283061,45.7140816 L25.1427449,45.7140816 L25.1427449,50.299204 C25.1427449,51.9849108 24.5210334,53.6066178 23.4044669,54.856898 L54.856898,54.856898 C57.3814581,54.856898 59.4283061,52.81005 59.4283061,50.2854898 L59.4283061,45.7140816 Z M11.4285204,11.4285204 L11.4285204,6.84339802 C11.4285204,5.63426056 10.9485226,4.47540859 10.0936692,3.62055527 C9.2388159,2.76570194 8.07996393,2.28570408 6.87082647,2.28570408 C6.86168365,2.28570408 6.85254084,2.28570408 6.84339802,2.28570408 C5.63426056,2.28570408 4.47540859,2.76570194 3.62055527,3.62055527 C2.76570194,4.47540859 2.28570408,5.63426056 2.28570408,6.84339802 L2.28570408,11.4285204 L11.4285204,11.4285204 Z" id="Shape"></path>
                        <path d="M24.0004894,10.2849369 C24.0004894,9.65383919 23.4887957,9.14159119 22.8576362,9.14159119 L18.2862224,9.14159119 C17.6550629,9.14159119 17.1433692,9.65383919 17.1433692,10.2849369 L17.1433692,39.99885 C17.1433692,40.6299478 17.6550629,41.1421958 18.2862224,41.1421958 L22.8576362,41.1421958 C23.4887957,41.1421958 24.0004894,40.6299478 24.0004894,39.99885 L24.0004894,10.2849369 Z M19.4290755,11.4270941 L19.4290755,38.8555043 L21.7147831,38.8555043 L21.7147831,11.4270941 L19.4290755,11.4270941 Z" id="Shape"></path>
                        <path d="M33.1433058,21.7143945 C33.1433058,21.0832042 32.631612,20.5712304 32.0004526,20.5712304 L27.4290387,20.5712304 C26.7978792,20.5712304 26.2861855,21.0832042 26.2861855,21.7143945 L26.2861855,39.9999014 C26.2861855,40.6310918 26.7978792,41.1430655 27.4290387,41.1430655 L32.0004526,41.1430655 C32.631612,41.1430655 33.1433058,40.6310918 33.1433058,39.9999014 L33.1433058,21.7143945 Z M28.5718919,22.8568271 L28.5718919,38.8567374 L30.8575994,38.8567374 L30.8575994,22.8568271 L28.5718919,22.8568271 Z" id="Shape"></path>
                        <path d="M42.2861221,33.1427412 C42.2861221,32.5116411 41.7744284,31.9998503 41.1432689,31.9998503 L36.571855,31.9998503 C35.9406956,31.9998503 35.4290018,32.5116411 35.4290018,33.1427412 L35.4290018,39.9998134 C35.4290018,40.6309135 35.9406956,41.1427043 36.571855,41.1427043 L41.1432689,41.1427043 C41.7744284,41.1427043 42.2861221,40.6309135 42.2861221,39.9998134 L42.2861221,33.1427412 Z M37.7147082,34.2856321 L37.7147082,38.8569225 L40.0004157,38.8569225 L40.0004157,34.2856321 L37.7147082,34.2856321 Z" id="Shape"></path>
                    </g>
                </g>
            </g>
        </g>
    </g>
</svg>