<?xml version="1.0" encoding="UTF-8"?>
<svg width="64px" height="64px" viewBox="0 0 64 64" version="1.1" xmlns="http://www.w3.org/2000/svg" xmlns:xlink="http://www.w3.org/1999/xlink">
    <title>icon-spend-64x64</title>
    <g id="Mondelēz-GSM-Analytics" stroke="none" stroke-width="1" fill="none" fill-rule="evenodd">
        <g id="mondelez-gsm-analytics-landing-page-v2-02" transform="translate(-935.000000, -277.000000)" fill="#FFFFFF">
            <g id="block-Spend" transform="translate(852.000000, 238.000000)">
                <g id="icon-spend-64x64" transform="translate(83.000000, 39.000000)">
                    <rect id="boundary" opacity="0" x="0" y="0" width="64" height="64"></rect>
                    <g id="noun_cash-out_598867" transform="translate(0.000000, 6.000000)" fill-rule="nonzero">
                        <path d="M32.0014222,26.3111111 C35.9509333,26.3111111 39.1523556,23.1260444 39.1523556,19.1992889 C39.1523556,15.2718222 35.9509333,12.0888889 32.0014222,12.0888889 C28.0497778,12.0888889 24.8497778,15.2718222 24.8497778,19.1992889 C24.8497778,23.1260444 28.0497778,26.3111111 32.0014222,26.3111111 Z M32.0014222,14.2222222 C34.7612444,14.2222222 37.0062222,16.4551111 37.0062222,19.1992889 C37.0062222,21.9441778 34.7612444,24.1777778 32.0014222,24.1777778 C29.2416,24.1777778 26.9959111,21.9441778 26.9959111,19.1992889 C26.9959111,16.4551111 29.2416,14.2222222 32.0014222,14.2222222 Z" id="Shape"></path>
                        <path d="M41.2536889,11.3777778 C44.4124444,11.3777778 46.9738667,8.83057778 46.9738667,5.68817778 C46.9738667,2.54648889 44.4124444,8.8817842e-16 41.2536889,8.8817842e-16 C38.0920889,8.8817842e-16 35.5320889,2.54648889 35.5320889,5.68817778 C35.5320889,8.83057778 38.0913778,11.3777778 41.2536889,11.3777778 Z M41.2536889,2.13333333 C43.2248889,2.13333333 44.8277333,3.72835556 44.8277333,5.68817778 C44.8277333,7.64871111 43.2248889,9.24444444 41.2536889,9.24444444 C39.2817778,9.24444444 37.6775109,7.64871111 37.6775109,5.68817778 C37.6768,3.72835556 39.2810667,2.13333333 41.2536889,2.13333333 Z" id="Shape"></path>
                        <path d="M59.1921778,27.2099556 C58.4853333,27.2099556 57.8332444,27.3813333 57.2536889,27.6394667 C56.3754667,26.5201778 55.0108444,25.7962667 53.472,25.7948444 C52.6762667,25.7941333 51.9452444,26.0046222 51.3166222,26.3189333 L49.2864,27.5143111 C48.4053333,26.4668444 47.0862222,25.7955556 45.6056889,25.7948444 C44.8099556,25.7941333 44.0796444,26.0046222 43.4510222,26.3189333 L36.1436444,30.7655111 C34.3701333,30.2435556 26.6680889,28.0711111 25.1868444,27.6992 C24.4437333,27.5128889 23.7952,27.36 23.264,27.2512 C22.9980444,27.1971556 22.7619556,27.1530667 22.5521778,27.1210667 C22.3395556,27.0897778 22.1624889,27.0677333 21.9619556,27.0670222 C21.8076444,27.0677333 21.6746667,27.0819556 21.5217778,27.0997333 C20.9678222,27.1729778 20.1799111,27.3408 19.2504889,27.5569778 C17.3511111,28.0014222 14.9262222,28.6464 13.5872,29.0090667 L13.5872,27.0222222 C13.5872,25.4577778 12.3008,24.1777778 10.7278222,24.1777778 L2.86008889,24.1777778 C1.28782222,24.1777778 0,25.4577778 0,27.0222222 L0,49.0666667 C0,50.6311111 1.28782222,51.9111111 2.86008889,51.9111111 L10.7264,51.9111111 C12.3000889,51.9111111 13.5857778,50.6311111 13.5857778,49.0666667 L13.5857778,47.3550222 C15.2832,47.7226667 19.0513778,48.5319111 23.0236444,49.3432889 C25.7102222,49.8915556 28.4871111,50.4405333 30.7797333,50.8544 C31.9267556,51.0606222 32.9536,51.2334222 33.7927111,51.3557333 C34.6396444,51.4780444 35.2718222,51.5534222 35.7532444,51.5555556 C36.128,51.5541333 36.4821333,51.4830222 36.8654222,51.3792 C37.5786667,51.1793778 38.3900444,50.8401778 39.3187556,50.3914667 C42.5514667,48.8241778 47.1943111,45.8872889 51.5740444,42.9816889 C55.9459556,40.0803556 60.0348444,37.2138667 62.0387556,35.8421333 C63.2945778,34.9816889 64,33.5296 64,31.9921778 C63.9985778,29.3518222 61.8488889,27.2106667 59.1921778,27.2099556 Z M11.4417778,49.0666667 C11.4417778,49.4520889 11.1139556,49.7777778 10.7264,49.7777778 L2.86008889,49.7777778 C2.47253333,49.7777778 2.14471111,49.4520889 2.14471111,49.0666667 L2.14471111,27.0222222 C2.14471111,26.6368 2.47253333,26.3111111 2.86008889,26.3111111 L10.7264,26.3111111 C11.1139556,26.3111111 11.4417778,26.6368 11.4417778,27.0222222 L11.4417778,49.0666667 Z M60.8248889,34.0849778 C58.3601778,35.7731556 52.8462222,39.6451556 47.5086222,43.0919111 C44.8426667,44.8142222 42.2193778,46.4291556 40.0689778,47.6003556 C38.9952,48.1856 38.0373333,48.6592 37.2707556,48.9749333 C36.8881778,49.1335111 36.5532444,49.2515556 36.288,49.3248 C36.0241778,49.3994667 35.8257778,49.4243556 35.7532444,49.4229905 C35.5192889,49.4250667 34.8999111,49.3632 34.1048889,49.2458667 C31.2867556,48.8355556 26.0131556,47.7880889 21.4727111,46.8465778 C19.2007111,46.3751111 17.1064889,45.9306667 15.5811556,45.6028444 C14.6951111,45.4129778 14.0103111,45.2643556 13.5850667,45.1726222 L13.5850667,31.2213333 C13.7941333,31.1644444 14.0693333,31.0897778 14.3992889,31.0001778 C15.5299556,30.6951111 17.2558222,30.2378667 18.8032,29.8588444 C19.5754667,29.6689778 20.3057778,29.4997333 20.8860444,29.3795556 C21.1754667,29.3198222 21.4272,29.2728889 21.6213333,29.2423111 C21.8119111,29.2103111 21.9591111,29.1996444 21.9605333,29.2010667 C21.9648,29.2003556 22.0771556,29.2074667 22.2300444,29.2309333 C22.8216889,29.3191111 24.0355556,29.6014222 25.5132444,29.9868444 C29.9676444,31.1431111 36.9912889,33.2344889 39.8286222,34.0920889 C40.8099556,34.3864889 41.6995556,34.8302222 42.2819556,35.3685333 C42.5756444,35.6373333 42.7953778,35.9246222 42.9432889,36.2353778 C43.0919111,36.5475556 43.1751111,36.8860444 43.1765333,37.2984889 C43.1758222,38.1354667 42.8387556,38.8835556 42.2869333,39.4332444 C41.7393778,39.9758222 40.9955556,40.3086222 40.1642667,40.3157333 L37.3973333,40.0462222 L27.9509333,38.8408889 C27.3628444,38.7662222 26.8245333,39.1786667 26.7498667,39.7624889 C26.6752,40.3470222 27.0904889,40.8817778 27.6778667,40.9564444 L37.1548444,42.1660444 L40.0881778,42.4519111 L40.1408,42.4519111 C43.0016,42.4504889 45.3212444,40.1450667 45.3226667,37.2992 C45.3240889,36.5824 45.1640889,35.9104 44.8817778,35.3201778 C44.4565333,34.432 43.7717333,33.7443556 42.9987556,33.2209778 C42.2222222,32.6961778 41.3461333,32.3221333 40.4529778,32.0519111 C40.0248889,31.9224889 39.4986667,31.7639111 38.9048889,31.5868444 L44.4316444,28.2197333 C44.8092444,28.0341333 45.1960889,27.9296 45.6049778,27.9288875 C46.2983111,27.9281778 46.9240889,28.1955556 47.3976889,28.6279111 L44.5212444,30.3239111 C44.0120889,30.624 43.8442667,31.2789333 44.1464889,31.7859556 C44.4494222,32.2922667 45.1072,32.4593778 45.6163556,32.1585778 L52.2915556,28.2218667 C52.6712889,28.0341333 53.0602667,27.9296 53.4712889,27.9288875 C54.2115556,27.9281778 54.8771556,28.2346667 55.3585778,28.7210667 L47.5854222,33.3056 C47.0755556,33.6056889 46.9077333,34.2606222 47.2106667,34.7676444 C47.5128889,35.2739556 48.1706667,35.4410667 48.6798222,35.1402667 L58.0131556,29.6355556 C58.3921778,29.4499556 58.7804444,29.3447111 59.1907556,29.344 C59.9281778,29.3447111 60.5880889,29.6384 61.0723556,30.1205333 C61.5559111,30.6033778 61.8524444,31.2590222 61.8531592,31.9936 C61.8545778,32.8860444 61.4421333,33.6668444 60.8248889,34.0849778 Z" id="Shape"></path>
                    </g>
                </g>
            </g>
        </g>
    </g>
</svg>