<?xml version="1.0" encoding="UTF-8"?>
<svg width="64px" height="64px" viewBox="0 0 64 64" version="1.1" xmlns="http://www.w3.org/2000/svg" xmlns:xlink="http://www.w3.org/1999/xlink">
    <title>icon-supplier-management-64x64</title>
    <g id="Mondelēz-GSM-Analytics" stroke="none" stroke-width="1" fill="none" fill-rule="evenodd">
        <g id="mondelez-gsm-analytics-landing-page-v2-02" transform="translate(-1197.000000, -277.000000)" fill="#FFFFFF">
            <g id="block-Supplier" transform="translate(1114.000000, 238.000000)">
                <g id="icon-supplier-management-64x64" transform="translate(83.000000, 39.000000)">
                    <rect id="boundary" opacity="0" x="0" y="0" width="64" height="64"></rect>
                    <g id="noun_supplier-relationship_4347810" transform="translate(0.000000, 0.000000)" fill-rule="nonzero">
                        <path d="M62.0949342,17.0655976 L61.8666676,17.0655976 L61.8666676,9.52320101 C61.8637278,6.62072863 59.5115424,4.26854324 56.6090701,4.26560343 L51.2000059,4.26560343 C51.2000059,3.0873965 50.2448804,2.13227107 49.0666735,2.13227107 L33.0666809,2.13227107 C31.8884739,2.13227107 30.9333485,3.0873965 30.9333485,4.26560343 L30.9333485,17.2682641 C30.2810825,17.5868102 29.8671914,18.2490359 29.8666823,18.97493 L29.8666823,21.5647955 C29.8702051,22.6147803 30.7217581,23.464426 31.7717481,23.4655946 L34.2400137,23.4655946 C34.4045745,24.2417604 34.7418046,24.9709066 35.2266799,25.598927 L27.73335,25.598927 L27.73335,8.53226814 C27.7372326,7.31901122 27.0514902,6.20891913 25.9648175,5.66933612 L15.2981557,0.336005231 C14.3968001,-0.112001744 13.3376459,-0.112001744 12.4362903,0.336005231 L1.76962856,5.66933612 C0.682541198,6.20861925 -0.00365262532,7.31877249 1.46265663e-05,8.53226814 L1.46265663e-05,25.598927 C1.46265663e-05,26.7771339 0.955154799,27.7322593 2.13336172,27.7322593 L62.9333338,27.7322593 C63.5224373,27.7322593 64,27.2546966 64,26.6655931 C64,26.0764897 63.5224373,25.598927 62.9333338,25.598927 L58.6389358,25.598927 C59.1238111,24.9709066 59.4610412,24.2417604 59.625602,23.4655946 L62.0949342,23.4655946 C63.1465856,23.4644189 63.9988243,22.6121802 64,21.5605288 L64,18.9706633 C63.9988243,17.9190119 63.1465856,17.0667732 62.0949342,17.0655976 L62.0949342,17.0655976 Z M56.6090701,6.39893578 C58.3340665,6.40011245 59.7321586,7.7982046 59.7333353,9.52320101 L59.7333353,10.6656005 L56.075737,10.6656005 C55.7393589,10.6656005 55.4666706,10.3929122 55.4666706,10.0565341 L55.4666706,6.39893578 L56.6090701,6.39893578 Z M53.3333382,6.39893578 L53.3333382,10.0565341 C53.3345147,11.5706315 54.5616395,12.7977564 56.075737,12.7989328 L59.7333353,12.7989328 L59.7333353,17.0655976 L51.2000059,17.0655976 L51.2000059,6.39893578 L53.3333382,6.39893578 Z M44.6933422,23.4655946 L49.1733401,23.4655946 C49.337901,24.2417604 49.6751311,24.9709066 50.1600064,25.598927 L43.7056093,25.598927 C44.1908653,24.9710047 44.5284633,24.2418515 44.6933422,23.4655946 Z M49.1733401,21.3322623 L44.6933422,21.3322623 C44.5287814,20.5560965 44.1915513,19.8269503 43.706676,19.1989299 L50.1621397,19.1989299 C49.6765029,19.826754 49.3385371,20.5559143 49.1733401,21.3322623 L49.1733401,21.3322623 Z M49.0666809,4.26560343 L49.0666809,17.0655976 L33.0666809,17.0655976 L33.0666809,4.26560343 L49.0666809,4.26560343 Z M32.0000147,19.1989299 L35.2277465,19.1989299 C34.7428713,19.8269503 34.4056411,20.5560965 34.2410803,21.3322623 L32.0000147,21.3322623 L32.0000147,19.1989299 Z M36.2666794,22.3989284 C36.2666794,20.6316181 37.6993675,19.1989299 39.4666779,19.1989299 C41.2339883,19.1989299 42.6666765,20.6316181 42.6666765,22.3989284 C42.6666765,24.1662388 41.2339883,25.598927 39.4666779,25.598927 C37.6993675,25.598927 36.2666794,24.1662388 36.2666794,22.3989284 Z M2.1333523,8.53226814 C2.13166033,8.12754615 2.36051365,7.75715967 2.72322812,7.57760191 L13.3898899,2.24427102 C13.5379847,2.17046072 13.7012207,2.13218947 13.8666897,2.13218947 C14.0317596,2.13022308 14.1950274,2.16674831 14.3434895,2.23893769 L25.0101512,7.57226858 C25.3746041,7.75266989 25.6037659,8.12562763 25.6000629,8.53226814 L25.6000629,25.598927 L23.4666853,25.598927 L23.4666853,10.6656005 C23.4666853,9.48739356 22.5115598,8.53226814 21.3333529,8.53226814 L6.40002643,8.53226814 C5.22181951,8.53226814 4.26669408,9.48739356 4.26669408,10.6656005 L4.26669408,25.598927 L2.1333523,25.598927 L2.1333523,8.53226814 Z M17.0666882,21.3322623 L14.9333559,21.3322623 L14.9333559,19.1989299 C14.9333559,18.020723 13.9782304,17.0655976 12.8000235,17.0655976 L10.6666911,17.0655976 C9.48848422,17.0655976 8.53335879,18.020723 8.53335879,19.1989299 L8.53335879,25.598927 L6.40002643,25.598927 L6.40002643,14.9322652 L21.3333529,14.9322652 L21.3333529,25.598927 L19.2000206,25.598927 L19.2000206,23.4655946 C19.2000206,22.2873877 18.2448951,21.3322623 17.0666882,21.3322623 Z M12.8000235,21.3322623 L10.6666911,21.3322623 L10.6666911,19.1989299 L12.8000235,19.1989299 L12.8000235,21.3322623 Z M21.3333529,12.7989328 L6.40002643,12.7989328 L6.40002643,10.6656005 L21.3333529,10.6656005 L21.3333529,12.7989328 Z M10.6666911,23.4655946 L12.8000235,23.4655946 L12.8000235,25.598927 L10.6666911,25.598927 L10.6666911,23.4655946 Z M14.9333559,25.598927 L14.9333559,23.4655946 L17.0666882,23.4655946 L17.0666882,25.598927 L14.9333559,25.598927 Z M51.2000059,22.3989284 C51.2000059,20.6316181 52.632694,19.1989299 54.4000044,19.1989299 C56.1673148,19.1989299 57.6000029,20.6316181 57.6000029,22.3989284 C57.6000029,24.1662388 56.1673148,25.598927 54.4000044,25.598927 C52.632694,25.598927 51.2000059,24.1662388 51.2000059,22.3989284 Z M61.8666676,21.3322623 L59.6266687,21.3322623 C59.4621079,20.5560965 59.1248777,19.8269503 58.6400025,19.1989299 L61.8666676,19.1989299 L61.8666676,21.3322623 Z" id="Shape"></path>
                        <path d="M46.7456079,40.7882533 L39.2053447,33.2479901 C37.5397025,31.5852029 34.8421897,31.5852029 33.1765475,33.2479901 L31.5125482,34.9119894 L29.7600157,33.2479901 C28.094006,31.5830721 25.3940282,31.5830721 23.7280185,33.2479901 L16.1824219,40.7882533 C15.3802247,41.5912392 14.9310407,42.6807668 14.9342266,43.8157982 C14.9374465,44.9508297 15.3927723,46.0378049 16.1994886,46.8362506 L18.332821,48.8746496 C17.6718705,49.8274889 17.5818442,51.0645228 18.0978735,52.1030178 C18.6139027,53.1415129 19.6542056,53.816885 20.8128198,53.8655807 C20.8738625,55.5031046 22.1845639,56.8179877 23.8218851,56.8842459 C23.8628958,57.6741939 24.1918945,58.4217455 24.7466847,58.9855783 C25.309325,59.5432913 26.0597258,59.87114 26.851217,59.9050446 C26.899359,61.0643586 27.5776371,62.1045245 28.619075,62.6161236 C29.6605129,63.1277228 30.8983445,63.0288324 31.8453481,62.3583768 L32.5504144,63.0581098 C33.3850161,63.8905131 34.6091509,64.1976681 35.7378707,63.8578935 C36.8665905,63.518119 37.7177453,62.586247 37.9541453,61.4314439 C38.0760721,61.4497357 38.198934,61.4611316 38.3221451,61.4655772 C40.0194614,61.4696858 41.4222293,60.1428953 41.5125437,58.4479786 C43.1381807,58.3610707 44.4372405,57.0633904 44.5258756,55.4378466 C45.3163265,55.3981295 46.0629588,55.0626971 46.617608,54.4981137 C47.8611531,53.2494981 47.8611531,51.2304647 46.617608,49.9818491 L45.109342,48.4639831 L46.7477413,46.8181172 C48.4106493,45.1517639 48.4096947,42.4534296 46.7456079,40.7882533 Z M19.9008202,50.6847821 C19.9011475,50.3986092 20.0164515,50.1245701 20.2208201,49.9242491 L21.7354861,48.4202498 C21.9989882,48.1309335 22.4004286,48.0102823 22.7797698,48.1063947 C23.1591109,48.2025071 23.4546696,48.4997548 23.548619,48.8796374 C23.6425684,49.25952 23.5196317,49.6602665 23.2288187,49.9221158 L21.7280194,51.4346484 C21.4226437,51.7378394 20.9655651,51.8290376 20.5672167,51.6662566 C20.1688683,51.5034756 19.9064675,51.1182695 19.9008202,50.6879821 L19.9008202,50.6847821 Z M22.9301522,53.6927807 C22.9286167,53.4130409 23.0388159,53.1442622 23.2362854,52.9461144 L23.2362854,52.9461144 L23.3728186,52.8085145 L25.493351,50.6815821 C25.7987267,50.3783911 26.2558053,50.2871929 26.6541537,50.449974 C27.0525021,50.612755 27.3149029,50.9979611 27.3205502,51.4282485 C27.3168573,51.7137298 27.2020714,51.9865378 27.0005503,52.1887814 L24.739218,54.4501137 C24.4326624,54.7505988 23.975852,54.838043 23.5799951,54.672016 C23.1841383,54.505989 22.9263758,54.1188445 22.9258855,53.6895807 L22.9301522,53.6927807 Z M25.9381508,56.711446 C25.9412253,56.4298946 26.0563889,56.1611794 26.2581507,55.9647797 L28.5301496,53.6927807 L29.2768159,52.9461144 C29.4746388,52.7477725 29.7433514,52.6364487 30.0234823,52.6367805 C30.3100252,52.6367805 30.5845019,52.7521485 30.7850819,52.9567811 C30.9853967,53.1504704 31.0965996,53.4184384 31.0922818,53.6970474 C31.0962685,53.9856335 30.9803981,54.2629501 30.7722819,54.4629137 L27.76535,57.4709123 C27.5652772,57.6712078 27.2937867,57.7837513 27.0106836,57.7837513 C26.7275806,57.7837513 26.45609,57.6712078 26.2560173,57.4709123 C26.0547681,57.2691018 25.9406491,56.9964416 25.9381508,56.711446 Z M29.2736159,60.478911 C28.8635663,60.0635008 28.8635663,59.3956551 29.2736159,58.980245 L31.5530816,56.701846 C31.7519966,56.5056635 32.020366,56.3960154 32.2997479,56.3967755 C32.8597749,56.3970766 33.3219697,56.8349207 33.3525474,57.3941124 C33.3532671,57.4340579 33.3561156,57.4739367 33.3610807,57.513579 C33.348545,57.7786501 33.2365704,58.02926 33.0474809,58.2154453 L31.1274818,60.1247778 L31.1274818,60.1247778 L30.7701486,60.4810443 C30.354412,60.8891008 29.6881875,60.8881511 29.2736159,60.478911 L29.2736159,60.478911 Z M35.5669464,61.5402438 L35.5562797,61.5498438 C35.1413565,61.9589554 34.4737585,61.9556174 34.0629471,61.5423771 L33.3962807,60.8810441 L34.5600135,59.7258446 C34.6760412,59.60822 34.7830125,59.4819938 34.8800134,59.3482448 L35.5690797,60.0405112 C35.7706636,60.2379403 35.8842681,60.5082174 35.8842681,60.7903775 C35.8842681,61.0725376 35.7706636,61.3428147 35.5690797,61.5402438 L35.5669464,61.5402438 Z M45.1018753,52.9866477 C44.9052742,53.1874507 44.6362315,53.300833 44.355209,53.3013143 L44.355209,53.3013143 C44.0733824,53.2995518 43.8041821,53.1841803 43.6085427,52.9813144 L43.5989427,52.9749144 L39.8304111,49.2149161 C39.4118738,48.8106793 38.7465878,48.8164604 38.3351386,49.2279096 C37.9236894,49.6393588 37.9179083,50.3046448 38.3221451,50.7231821 L42.0874767,54.4885137 C42.2896881,54.6877806 42.4035401,54.9598178 42.4035401,55.2437134 C42.4035401,55.527609 42.2896881,55.7996462 42.0874767,55.998913 C41.6655531,56.4010633 41.002201,56.4010633 40.5802774,55.998913 L40.5738774,55.998913 L37.085879,52.5109146 C36.6693829,52.0941239 35.9938704,52.0938852 35.5770797,52.5103813 C35.160289,52.9268774 35.1600502,53.6023899 35.5765464,54.0191806 L39.0698781,57.5114457 C39.339685,57.781062 39.4451582,58.174138 39.3465671,58.5426057 C39.2479759,58.9110735 38.9602988,59.198954 38.5919007,59.2978054 C38.2235027,59.3966568 37.8303523,59.2914613 37.5605455,59.021845 L37.0720124,58.5333119 L35.4240131,56.8767793 C35.3064153,56.2443532 35.0030151,55.6613197 34.5525468,55.2021134 C34.1600938,54.8166447 33.6741484,54.5398543 33.1424142,54.3989138 C33.1948275,54.1685935 33.2220099,53.9332515 33.2234808,53.6970474 C33.2293567,52.8478463 32.8897619,52.0327418 32.2826812,51.4389151 C31.5095838,50.6668628 30.3948043,50.3447885 29.3290826,50.5855822 C28.8849513,48.9377142 27.2156089,47.9375235 25.5530843,48.3231832 C25.2562762,47.2260075 24.3965741,46.3705853 23.2979308,46.0792567 C22.1992875,45.7879281 21.0286814,46.1049709 20.2272201,46.9109172 L19.8005536,47.3322503 L17.6885546,45.3130513 C16.857161,44.4802301 16.857161,43.1314738 17.6885546,42.2986526 L25.2288178,34.7583894 C26.0762753,33.9350224 27.4267774,33.9411869 28.2666831,34.7722561 L29.9978823,36.4095887 L26.6368171,39.7855871 C25.6571374,40.7198469 25.2599649,42.1112393 25.5988385,43.4218797 C25.9377122,44.7325202 26.9595288,45.7570247 28.2692745,46.0993403 C29.5790202,46.4416559 30.9714512,46.04814 31.9082814,45.070918 L35.3066798,41.6746529 L45.1114753,51.4815818 C45.523697,51.899798 45.5203595,52.572542 45.1040087,52.9866477 L45.1018753,52.9866477 Z M45.2352086,45.3066513 L45.2352086,45.3066513 L43.601076,46.9482505 L36.8128125,40.159987 L36.8128125,40.159987 C37.1856535,39.7375255 37.165607,39.0979407 36.7670414,38.6996574 C36.3684759,38.3013741 35.728877,38.2817808 35.3066798,38.654921 L34.5493468,39.412254 L30.4000154,43.5626521 C29.7667022,44.160154 28.7773297,44.160154 28.1440165,43.5626521 C27.838628,43.2642138 27.666466,42.8552508 27.666466,42.4282526 C27.666466,42.0012543 27.838628,41.5922914 28.1440165,41.2938531 L34.6816135,34.7562561 C35.5245881,33.9497785 36.8530374,33.9497785 37.6960121,34.7562561 L45.2362753,42.2965193 C46.0679637,43.1290462 46.0684409,44.4778026 45.2373419,45.3109179 L45.2352086,45.3066513 Z" id="Shape"></path>
                        <path d="M12.8000235,6.39893578 L14.9333559,6.39893578 C15.5224593,6.39893578 16.000022,5.92137307 16.000022,5.3322696 C16.000022,4.74316614 15.5224593,4.26560343 14.9333559,4.26560343 L12.8000235,4.26560343 C12.21092,4.26560343 11.7333573,4.74316614 11.7333573,5.3322696 C11.7333573,5.92137307 12.21092,6.39893578 12.8000235,6.39893578 Z" id="Path"></path>
                        <path d="M37.3333456,13.865599 L44.8000088,13.865599 C45.3891123,13.865599 45.866675,13.3880363 45.866675,12.7989328 C45.866675,12.2098294 45.3891123,11.7322667 44.8000088,11.7322667 L37.3333456,11.7322667 C36.7442421,11.7322667 36.2666794,12.2098294 36.2666794,12.7989328 C36.2666794,13.3880363 36.7442421,13.865599 37.3333456,13.865599 Z" id="Path"></path>
                        <path d="M37.3333456,9.59893431 L44.8000088,9.59893431 C45.3891123,9.59893431 45.866675,9.1213716 45.866675,8.53226814 C45.866675,7.94316467 45.3891123,7.46560196 44.8000088,7.46560196 L37.3333456,7.46560196 C36.7442421,7.46560196 36.2666794,7.94316467 36.2666794,8.53226814 C36.2666794,9.1213716 36.7442421,9.59893431 37.3333456,9.59893431 Z" id="Path"></path>
                    </g>
                </g>
            </g>
        </g>
    </g>
</svg>